<svg width="108" height="96" viewBox="0 0 108 96" fill="none" xmlns="http://www.w3.org/2000/svg">
<path d="M35.8651 91.6289C38.0649 91.6289 39.8482 89.8456 39.8482 87.6458C39.8482 85.446 38.0649 83.6627 35.8651 83.6627C33.6652 83.6627 31.8819 85.446 31.8819 87.6458C31.8819 89.8456 33.6652 91.6289 35.8651 91.6289Z" stroke="black" stroke-width="7.96627" stroke-linecap="round" stroke-linejoin="round"/>
<path d="M91.6289 91.6289C93.8287 91.6289 95.612 89.8456 95.612 87.6458C95.612 85.446 93.8287 83.6627 91.6289 83.6627C89.4291 83.6627 87.6458 85.446 87.6458 87.6458C87.6458 89.8456 89.4291 91.6289 91.6289 91.6289Z" stroke="black" stroke-width="7.96627" stroke-linecap="round" stroke-linejoin="round"/>
<path d="M4 4H19.9325L31.8819 71.7133H95.612" stroke="black" stroke-width="7.96627" stroke-linecap="round" stroke-linejoin="round"/>
<path d="M31.8819 55.7807H93.9789C94.4395 55.781 94.886 55.6217 95.2423 55.3298C95.5986 55.038 95.8428 54.6316 95.9332 54.18L103.103 18.3318C103.161 18.0428 103.154 17.7444 103.082 17.4584C103.011 17.1724 102.877 16.9058 102.69 16.6779C102.503 16.45 102.268 16.2664 102.001 16.1404C101.735 16.0144 101.443 15.9492 101.149 15.9494H23.9156" stroke="black" stroke-width="7.96627" stroke-linecap="round" stroke-linejoin="round"/>
</svg>
