<svg width="109" height="133" viewBox="0 0 109 133" fill="none" xmlns="http://www.w3.org/2000/svg">
<path d="M21.5711 20.7904V16.6595C21.5806 13.3757 22.8893 10.2291 25.2113 7.90709C27.5334 5.58507 30.68 4.27635 33.9638 4.26682H91.7963C95.0802 4.27635 98.2268 5.58507 100.549 7.90709C102.871 10.2291 104.18 13.3757 104.189 16.6595V111.67L83.5346 95.1466" stroke="black" stroke-width="8.2618" stroke-linejoin="round"/>
<path d="M71.1419 24.9213H17.4402C14.1564 24.9308 11.0098 26.2395 8.68776 28.5616C6.36574 30.8836 5.05702 34.0302 5.04749 37.314V128.194L44.291 95.1466L83.5346 128.194V37.314C83.525 34.0302 82.2163 30.8836 79.8943 28.5616C77.5723 26.2395 74.4257 24.9308 71.1419 24.9213V24.9213Z" stroke="black" stroke-width="8.2618" stroke-linejoin="round"/>
</svg>
